<?xml version="1.0" encoding="utf-8"?>
<!-- Generator: Adobe Illustrator 16.0.0, SVG Export Plug-In . SVG Version: 6.00 Build 0)  -->
<!DOCTYPE svg PUBLIC "-//W3C//DTD SVG 1.1//EN" "http://www.w3.org/Graphics/SVG/1.1/DTD/svg11.dtd">
<svg version="1.1" id="Layer_1" xmlns="http://www.w3.org/2000/svg" xmlns:xlink="http://www.w3.org/1999/xlink" x="0px" y="0px"
	 width="100px" height="100px" viewBox="0 0 100 100" enable-background="new 0 0 100 100" xml:space="preserve">
<path fill="#4D86C6" d="M67.462,34.511c0,0-33.354,0.052-34.542,0.056c-0.003,0-0.004,0-0.007,0c-0.049,0-0.037,0,0.007,0
	c1.345-0.003-1.945-0.677-1.945,2.737v26.681c0,0-0.57,3.369,2.735,3.371c0,0,32.954-0.063,34.322-0.063s2.625,0.797,2.625-3.308
	c0,0-0.003-25.883-0.003-26.909C70.654,36.049,70.883,34.511,67.462,34.511z M66.323,63.301H34.852V50.934h31.471V63.301z
	 M66.323,43.119H34.852v-4.333h31.471V43.119z"/>
<path fill="#4D86C6" d="M32.913,34.567c0.003,0,0.004,0,0.007,0C32.876,34.567,32.864,34.567,32.913,34.567z"/>
</svg>
