<?xml version="1.0" encoding="utf-8"?>
<!-- Generator: Adobe Illustrator 16.0.0, SVG Export Plug-In . SVG Version: 6.00 Build 0)  -->
<!DOCTYPE svg PUBLIC "-//W3C//DTD SVG 1.1//EN" "http://www.w3.org/Graphics/SVG/1.1/DTD/svg11.dtd">
<svg version="1.1" id="Layer_1" xmlns="http://www.w3.org/2000/svg" xmlns:xlink="http://www.w3.org/1999/xlink" x="0px" y="0px"
	 width="100px" height="100px" viewBox="0 0 100 100" enable-background="new 0 0 100 100" xml:space="preserve">
<g>
	<g>
		<path fill="#4D86C6" d="M61.832,51.706c0,0.55-0.449,1-1,1H31.361c-0.55,0-1-0.386-1-0.854s0-1.305,0-1.854V31.129
			c0-0.55,0.45-1,1-1h29.471c0.551,0,1,0.45,1,1V51.706z"/>
	</g>
	<polygon fill="#4D86C6" points="30.361,49.057 30.361,61.6 41.194,50.653 	"/>
	<g>
		<path fill="#4D86C6" d="M71.523,62.082c0,0.549-0.449,1-1,1h-5.41c-0.551,0-1-0.451-1-1V39.453c0-0.55,0.449-1,1-1h5.41
			c0.551,0,1,0.45,1,1V62.082z"/>
	</g>
	<g>
		<path fill="#4D86C6" d="M71.523,62.082c0,0.549-0.449,1-1,1H40.141c-0.55,0-1-0.451-1-1v-4.043c0-0.551,0.45-1,1-1h30.382
			c0.551,0,1,0.449,1,1v1.762c0,0.551,0,1.451,0,2V62.082L71.523,62.082z"/>
	</g>
	<polygon fill="#4D86C6" points="71.523,60.061 71.523,71.406 61.262,61.6 	"/>
</g>
</svg>
