<?xml version="1.0" encoding="utf-8"?>
<!-- Generator: Adobe Illustrator 16.0.0, SVG Export Plug-In . SVG Version: 6.00 Build 0)  -->
<!DOCTYPE svg PUBLIC "-//W3C//DTD SVG 1.1//EN" "http://www.w3.org/Graphics/SVG/1.1/DTD/svg11.dtd">
<svg version="1.1" id="Layer_1" xmlns="http://www.w3.org/2000/svg" xmlns:xlink="http://www.w3.org/1999/xlink" x="0px" y="0px"
	 width="100px" height="100px" viewBox="0 0 100 100" enable-background="new 0 0 100 100" xml:space="preserve">
<path fill="#4D86C6" d="M68.258,48.076c0.502-0.225,0.913-0.859,0.913-1.409v-9.381c0-0.55-0.45-1-1-1H33.569c-0.55,0-1,0.45-1,1
	v8.584c0,0.55,0.018,0.997,0.041,0.994c0,0,0,0,0.021,0c2.393,0,4.333,1.94,4.333,4.333c0,2.393-1.94,4.332-4.333,4.332
	c-0.021,0-0.021,0-0.021,0c-0.022-0.002-0.041,0.445-0.041,0.994v7.861c0,0.551,0.45,1,1,1h34.602c0.55,0,1-0.449,1-1v-7.053
	c0-0.55-0.411-1.184-0.913-1.409c0,0.001-3.42-1.53-3.42-3.923C64.838,49.607,68.258,48.076,68.258,48.076z M58.816,49.605
	l-2.941,2.877c-0.395,0.386-0.639,1.144-0.544,1.686l0.705,4.055c0.094,0.541-0.228,0.775-0.716,0.521l-3.646-1.908
	c-0.487-0.255-1.284-0.254-1.771,0.003l-3.639,1.921c-0.486,0.257-0.81,0.023-0.718-0.52l0.688-4.056
	c0.092-0.543-0.156-1.301-0.551-1.684l-2.952-2.866c-0.395-0.383-0.272-0.762,0.272-0.842l4.07-0.6
	c0.544-0.08,1.188-0.549,1.431-1.043l1.813-3.693c0.242-0.494,0.642-0.494,0.886-0.001l1.828,3.687
	c0.243,0.493,0.89,0.96,1.435,1.038l4.072,0.584C59.086,48.842,59.21,49.22,58.816,49.605z"/>
</svg>
