<?xml version="1.0" encoding="utf-8"?>
<!-- Generator: Adobe Illustrator 16.0.0, SVG Export Plug-In . SVG Version: 6.00 Build 0)  -->
<!DOCTYPE svg PUBLIC "-//W3C//DTD SVG 1.1//EN" "http://www.w3.org/Graphics/SVG/1.1/DTD/svg11.dtd">
<svg version="1.1" id="Layer_1" xmlns="http://www.w3.org/2000/svg" xmlns:xlink="http://www.w3.org/1999/xlink" x="0px" y="0px"
	 width="100px" height="100px" viewBox="0 0 100 100" enable-background="new 0 0 100 100" xml:space="preserve">
<path fill="none" stroke="#818181" stroke-width="2" stroke-miterlimit="10" d="M41.938,66V50.144c0,0,1.25-5.727,7.188-5.993
	c5.938-0.266,8.188,3.978,8.75,5.939c0.079,2.385,0,15.909,0,15.909S45.188,66,41.938,66z"/>
<ellipse fill="#818181" stroke="#818181" stroke-width="1.5764" stroke-miterlimit="10" cx="49.924" cy="42.561" rx="1.859" ry="1.577"/>
<g>
	<g>
		<path fill="#818181" d="M37.813,67.188c8.125,0,16.25,0,24.375,0c1.129,0,1.129-1.75,0-1.75c-8.125,0-16.25,0-24.375,0
			C36.684,65.438,36.684,67.188,37.813,67.188L37.813,67.188z"/>
	</g>
</g>
<path fill="none" stroke="#818181" stroke-width="1.5764" stroke-miterlimit="10" d="M51.766,67.363
	c0,1.761-1.104,3.188-2.469,3.188c-1.364,0-2.468-1.427-2.468-3.188c0-1.762,1.123-1.313,2.486-1.313S51.766,65.604,51.766,67.363z"
	/>
</svg>
