<?xml version="1.0" encoding="utf-8"?>
<!-- Generator: Adobe Illustrator 16.0.0, SVG Export Plug-In . SVG Version: 6.00 Build 0)  -->
<!DOCTYPE svg PUBLIC "-//W3C//DTD SVG 1.1//EN" "http://www.w3.org/Graphics/SVG/1.1/DTD/svg11.dtd">
<svg version="1.1" id="Layer_1" xmlns="http://www.w3.org/2000/svg" xmlns:xlink="http://www.w3.org/1999/xlink" x="0px" y="0px"
	 width="100px" height="100px" viewBox="0 0 100 100" enable-background="new 0 0 100 100" xml:space="preserve">
<g>
	<g>
		<g>
			<path fill="#AFAFB0" d="M53.196,43.857c0.345,0.402,0.285,1.024-0.132,1.382l-4.876,4.179c-0.417,0.357-1.041,0.321-1.385-0.08
				c-0.345-0.401-0.285-1.023,0.132-1.381l4.876-4.179C52.229,43.42,52.853,43.456,53.196,43.857z"/>
		</g>
		<g>
			<path fill="#AFAFB0" d="M46.827,48.237c0.348-0.399,0.971-0.43,1.386-0.068l4.839,4.219c0.415,0.361,0.47,0.983,0.122,1.383
				s-0.971,0.43-1.386,0.068l-4.84-4.219C46.533,49.259,46.479,48.637,46.827,48.237z"/>
		</g>
	</g>
</g>
</svg>
