<?xml version="1.0" encoding="utf-8"?>
<!-- Generator: Adobe Illustrator 16.0.0, SVG Export Plug-In . SVG Version: 6.00 Build 0)  -->
<!DOCTYPE svg PUBLIC "-//W3C//DTD SVG 1.1//EN" "http://www.w3.org/Graphics/SVG/1.1/DTD/svg11.dtd">
<svg version="1.1" id="Layer_1" xmlns="http://www.w3.org/2000/svg" xmlns:xlink="http://www.w3.org/1999/xlink" x="0px" y="0px"
	 width="100px" height="100px" viewBox="0 0 100 100" enable-background="new 0 0 100 100" xml:space="preserve">
<g>
	<g>
		<path fill="#ABABAB" d="M62.832,49.706c0,0.55-0.449,1-1,1H32.361c-0.55,0-1-0.385-1-0.854s0-1.305,0-1.854V29.129
			c0-0.55,0.45-1,1-1h29.471c0.551,0,1,0.45,1,1V49.706z"/>
	</g>
	<polygon fill="#ABABAB" points="31.361,47.057 31.361,59.6 42.194,48.653 	"/>
	<g>
		<path fill="#ABABAB" d="M72.523,60.082c0,0.549-0.449,1-1,1h-5.41c-0.551,0-1-0.451-1-1V37.453c0-0.55,0.449-1,1-1h5.41
			c0.551,0,1,0.45,1,1V60.082z"/>
	</g>
	<g>
		<path fill="#ABABAB" d="M72.523,60.082c0,0.549-0.449,1-1,1H41.141c-0.55,0-1-0.451-1-1v-4.043c0-0.551,0.45-1,1-1h30.382
			c0.551,0,1,0.449,1,1v1.762c0,0.551,0,1.451,0,2V60.082z"/>
	</g>
	<polygon fill="#ABABAB" points="72.523,58.061 72.523,69.406 62.262,59.6 	"/>
</g>
</svg>
