<?xml version="1.0" encoding="utf-8"?>
<!-- Generator: Adobe Illustrator 16.0.0, SVG Export Plug-In . SVG Version: 6.00 Build 0)  -->
<!DOCTYPE svg PUBLIC "-//W3C//DTD SVG 1.1//EN" "http://www.w3.org/Graphics/SVG/1.1/DTD/svg11.dtd">
<svg version="1.1" id="Layer_1" xmlns="http://www.w3.org/2000/svg" xmlns:xlink="http://www.w3.org/1999/xlink" x="0px" y="0px"
	 width="100px" height="100px" viewBox="0 0 100 100" enable-background="new 0 0 100 100" xml:space="preserve">
<g>
	<path fill="#AFAFB0" d="M51.635,44.484c0.198,0.198,0.198,0.522,0,0.721l-5.758,5.757c-0.199,0.198-0.523,0.198-0.722,0
		l-0.846-0.846c-0.199-0.199-0.199-0.523,0-0.722l5.756-5.756c0.199-0.199,0.523-0.199,0.722,0L51.635,44.484z"/>
</g>
<g>
	<path fill="#AFAFB0" d="M50.787,55.963c-0.198,0.198-0.522,0.198-0.721,0l-5.756-5.758c-0.198-0.199-0.198-0.523,0-0.722
		l0.846-0.846c0.199-0.199,0.523-0.199,0.722,0l5.756,5.757c0.198,0.198,0.198,0.522,0,0.721L50.787,55.963z"/>
</g>
</svg>
