<?xml version="1.0" encoding="utf-8"?>
<!-- Generator: Adobe Illustrator 16.0.0, SVG Export Plug-In . SVG Version: 6.00 Build 0)  -->
<!DOCTYPE svg PUBLIC "-//W3C//DTD SVG 1.1//EN" "http://www.w3.org/Graphics/SVG/1.1/DTD/svg11.dtd">
<svg version="1.1" id="Layer_1" xmlns="http://www.w3.org/2000/svg" xmlns:xlink="http://www.w3.org/1999/xlink" x="0px" y="0px"
	 width="100px" height="100px" viewBox="0 0 100 100" enable-background="new 0 0 100 100" xml:space="preserve">
<g>
	<g>
		<g>
			<path fill="#AAABAB" d="M69.838,50c0-2.393,3.42-3.924,3.42-3.924c0.502-0.225,0.913-0.859,0.913-1.409v-9.381c0-0.55-0.45-1-1-1
				H38.569c-0.55,0-1,0.45-1,1v8.584c0,0.55,0.018,0.997,0.041,0.994c0,0,0,0,0.021,0c2.393,0,4.333,1.94,4.333,4.333
				c0,2.393-1.94,4.333-4.333,4.333c-0.021,0-0.021,0-0.021,0c-0.022-0.003-0.041,0.444-0.041,0.994v7.861c0,0.55,0.45,1,1,1h34.602
				c0.55,0,1-0.45,1-1v-7.053c0-0.55-0.411-1.184-0.913-1.409C73.258,53.924,69.838,52.393,69.838,50z"/>
		</g>
		<g>
			<path fill="#FFFFFF" d="M61.036,56.222c0.094,0.542-0.228,0.776-0.715,0.521l-3.646-1.908c-0.487-0.255-1.284-0.254-1.771,0.003
				l-3.638,1.921c-0.486,0.257-0.81,0.023-0.718-0.52l0.688-4.056c0.092-0.543-0.156-1.3-0.551-1.683l-2.951-2.866
				c-0.395-0.383-0.272-0.762,0.272-0.842l4.07-0.6c0.544-0.08,1.188-0.549,1.431-1.043l1.813-3.693
				c0.243-0.494,0.642-0.494,0.886-0.001l1.828,3.687c0.244,0.493,0.89,0.96,1.435,1.038l4.072,0.584
				c0.545,0.078,0.669,0.456,0.275,0.841l-2.941,2.878c-0.394,0.385-0.638,1.143-0.544,1.685L61.036,56.222z"/>
			<path fill="none" stroke="#FFFFFF" stroke-miterlimit="10" d="M61.036,56.222c0.094,0.542-0.228,0.776-0.715,0.521l-3.646-1.908
				c-0.487-0.255-1.284-0.254-1.771,0.003l-3.638,1.921c-0.486,0.257-0.81,0.023-0.718-0.52l0.688-4.056
				c0.092-0.543-0.156-1.3-0.551-1.683l-2.951-2.866c-0.395-0.383-0.272-0.762,0.272-0.842l4.07-0.6
				c0.544-0.08,1.188-0.549,1.431-1.043l1.813-3.693c0.243-0.494,0.642-0.494,0.886-0.001l1.828,3.687
				c0.244,0.493,0.89,0.96,1.435,1.038l4.072,0.584c0.545,0.078,0.669,0.456,0.275,0.841l-2.941,2.878
				c-0.394,0.385-0.638,1.143-0.544,1.685L61.036,56.222z"/>
		</g>
	</g>
</g>
</svg>
