<?xml version="1.0" encoding="utf-8"?>
<!-- Generator: Adobe Illustrator 16.0.0, SVG Export Plug-In . SVG Version: 6.00 Build 0)  -->
<!DOCTYPE svg PUBLIC "-//W3C//DTD SVG 1.1//EN" "http://www.w3.org/Graphics/SVG/1.1/DTD/svg11.dtd">
<svg version="1.1" id="Layer_1" xmlns="http://www.w3.org/2000/svg" xmlns:xlink="http://www.w3.org/1999/xlink" x="0px" y="0px"
	 width="31px" height="31px" viewBox="0 0 31 31" enable-background="new 0 0 31 31" xml:space="preserve">
<circle fill="#AEB4B8" cx="9.024" cy="8.255" r="1.024"/>
<g>
	<path fill="#AEB4B8" d="M22.307,8.674c0,0.165-0.135,0.3-0.301,0.3H11.427c-0.165,0-0.3-0.135-0.3-0.3V7.835
		c0-0.165,0.135-0.3,0.3-0.3h10.579c0.166,0,0.301,0.135,0.301,0.3V8.674z"/>
</g>
<circle fill="#AEB4B8" cx="9.024" cy="15.338" r="1.024"/>
<g>
	<path fill="#AEB4B8" d="M22.307,15.757c0,0.165-0.135,0.299-0.301,0.299H11.427c-0.165,0-0.3-0.134-0.3-0.299v-0.839
		c0-0.165,0.135-0.3,0.3-0.3h10.579c0.166,0,0.301,0.135,0.301,0.3V15.757z"/>
</g>
<circle fill="#AEB4B8" cx="9.024" cy="11.946" r="1.024"/>
<g>
	<path fill="#AEB4B8" d="M22.306,12.365c0,0.165-0.135,0.3-0.299,0.3h-10.58c-0.165,0-0.3-0.135-0.3-0.3v-0.838
		c0-0.166,0.135-0.301,0.3-0.301h10.58c0.164,0,0.299,0.135,0.299,0.301V12.365z"/>
</g>
<circle fill="#AEB4B8" cx="9.024" cy="19.172" r="1.024"/>
<g>
	<path fill="#AEB4B8" d="M22.307,19.591c0,0.165-0.135,0.3-0.301,0.3H11.427c-0.165,0-0.3-0.135-0.3-0.3v-0.838
		c0-0.166,0.135-0.301,0.3-0.301h10.579c0.166,0,0.301,0.135,0.301,0.301V19.591z"/>
</g>
</svg>
