<?xml version="1.0" encoding="utf-8"?>
<!-- Generator: Adobe Illustrator 16.0.0, SVG Export Plug-In . SVG Version: 6.00 Build 0)  -->
<!DOCTYPE svg PUBLIC "-//W3C//DTD SVG 1.1//EN" "http://www.w3.org/Graphics/SVG/1.1/DTD/svg11.dtd">
<svg version="1.1" id="Layer_1" xmlns="http://www.w3.org/2000/svg" xmlns:xlink="http://www.w3.org/1999/xlink" x="0px" y="0px"
	 width="31px" height="31px" viewBox="0 0 31 31" enable-background="new 0 0 31 31" xml:space="preserve">
<g>
	<path fill="#97A0A5" d="M8.087,8.16c-0.275,0-0.5,0.225-0.5,0.5v13.146c0,0.275,0.225,0.5,0.5,0.5h13.01c0.275,0,0.5-0.225,0.5-0.5
		V8.66c0-0.275-0.225-0.5-0.5-0.5H8.087z M20.031,20.209c0,0.275-0.225,0.5-0.5,0.5h-9.85c-0.275,0-0.5-0.225-0.5-0.5v-9.956
		c0-0.275,0.225-0.5,0.5-0.5h9.85c0.275,0,0.5,0.225,0.5,0.5V20.209z"/>
</g>
<g>
	<path fill="#97A0A5" d="M18.51,12.189c0-0.246-0.225-0.448-0.5-0.448h-6.744c-0.275,0-0.5,0.202-0.5,0.448s0.225,0.448,0.5,0.448
		h6.744C18.285,12.637,18.51,12.435,18.51,12.189z"/>
</g>
<g>
	<path fill="#97A0A5" d="M18.51,15.233c0-0.271-0.225-0.492-0.5-0.492h-6.744c-0.275,0-0.5,0.221-0.5,0.492
		c0,0.271,0.225,0.492,0.5,0.492h6.744C18.285,15.725,18.51,15.504,18.51,15.233z"/>
</g>
<g>
	<path fill="#97A0A5" d="M18.51,18.188c0-0.245-0.225-0.446-0.5-0.446h-6.744c-0.275,0-0.5,0.201-0.5,0.446
		c0,0.246,0.225,0.447,0.5,0.447h6.744C18.285,18.635,18.51,18.434,18.51,18.188z"/>
</g>
</svg>
