<?xml version="1.0" encoding="utf-8"?>
<!-- Generator: Adobe Illustrator 16.0.0, SVG Export Plug-In . SVG Version: 6.00 Build 0)  -->
<!DOCTYPE svg PUBLIC "-//W3C//DTD SVG 1.1//EN" "http://www.w3.org/Graphics/SVG/1.1/DTD/svg11.dtd">
<svg version="1.1" id="Layer_1" xmlns="http://www.w3.org/2000/svg" xmlns:xlink="http://www.w3.org/1999/xlink" x="0px" y="0px"
	 width="31px" height="31px" viewBox="0 0 31 31" enable-background="new 0 0 31 31" xml:space="preserve">
<path fill="#A7ABAE" enable-background="new    " d="M14.3,6.2c-2.2,0-4,2.2-4,5s1.8,5,4,5s4-2.2,4-5S16.5,6.2,14.3,6.2z M14.3,14.5
	c-1.5,0-2.7-1.5-2.7-3.4s1.2-3.4,2.7-3.4c1.5,0,2.7,1.5,2.7,3.4S15.8,14.5,14.3,14.5z"/>
<g enable-background="new    ">
	<path fill="#A7ABAE" d="M20.4,19.4c0,0.3-0.2,0.5-0.5,0.5h0c-0.3,0-0.5-0.2-0.5-0.5v-4.2c0-0.3,0.2-0.5,0.5-0.5h0
		c0.3,0,0.5,0.2,0.5,0.5V19.4z"/>
</g>
<g enable-background="new    ">
	<path fill="#A7ABAE" d="M22,16.8c0.3,0,0.5,0.2,0.5,0.5v0c0,0.3-0.2,0.5-0.5,0.5h-4.2c-0.3,0-0.5-0.2-0.5-0.5v0
		c0-0.3,0.2-0.5,0.5-0.5H22z"/>
</g>
<path fill="#A7ABAE" enable-background="new    " d="M22.7,21.6H7.8c0.2-1.4,1.2-2.5,2.6-2.9h2c0.5,0,0.2-0.1,0.5,0
	c-0.1-0.2,0.4,0.1,0.2,0h1.6v-1.2H9.9v0c-1.9,0.6-2.6,1-3.4,3.5c0.4,2.6,0,1,0.1,1.4l0.2,0.4l0,0c0.8-0.1,0.3,0,1,0
	c-0.5,0,0.6,0,0,0h14.9V21.6z"/>
</svg>
