<?xml version="1.0" encoding="utf-8"?>
<!-- Generator: Adobe Illustrator 16.0.0, SVG Export Plug-In . SVG Version: 6.00 Build 0)  -->
<!DOCTYPE svg PUBLIC "-//W3C//DTD SVG 1.1//EN" "http://www.w3.org/Graphics/SVG/1.1/DTD/svg11.dtd">
<svg version="1.1" id="Layer_1" xmlns="http://www.w3.org/2000/svg" xmlns:xlink="http://www.w3.org/1999/xlink" x="0px" y="0px"
	 width="31px" height="31px" viewBox="0 0 31 31" enable-background="new 0 0 31 31" xml:space="preserve">
<g>
	<g>
		<path fill="#D5D8DB" d="M16.863,11.489c0,0.267-0.225,0.485-0.5,0.485h-0.941c-0.275,0-0.5-0.218-0.5-0.485s0.225-0.485,0.5-0.485
			h0.941C16.639,11.004,16.863,11.222,16.863,11.489z"/>
	</g>
	<g>
		<path fill="#D5D8DB" d="M16.863,13.907c0,0.267-0.225,0.485-0.5,0.485h-3.388c-0.275,0-0.5-0.218-0.5-0.485s0.225-0.485,0.5-0.485
			h3.388C16.639,13.422,16.863,13.64,16.863,13.907z"/>
	</g>
	<g>
		<path fill="#D5D8DB" d="M16.863,16.244c0,0.267-0.225,0.485-0.5,0.485h-5.078c-0.275,0-0.5-0.219-0.5-0.485
			c0-0.267,0.225-0.485,0.5-0.485h5.078C16.639,15.759,16.863,15.977,16.863,16.244z"/>
	</g>
	<g>
		<path fill="#D5D8DB" d="M16.863,18.616c0,0.267-0.225,0.485-0.5,0.485H9.344c-0.275,0-0.5-0.219-0.5-0.485s0.225-0.485,0.5-0.485
			h7.019C16.639,18.131,16.863,18.35,16.863,18.616z"/>
	</g>
	<g>
		<path fill="#D5D8DB" d="M20.095,11.249c0.267,0,0.485,0.225,0.485,0.5v7.42c0,0.275-0.219,0.5-0.485,0.5s-0.485-0.225-0.485-0.5
			v-7.42C19.609,11.474,19.828,11.249,20.095,11.249z"/>
	</g>
	<g>
		<path fill="#D5D8DB" d="M22.113,17.082c0.189,0.189,0.185,0.503-0.01,0.697l-1.513,1.513c-0.194,0.194-0.508,0.199-0.696,0.011
			c-0.189-0.189-0.185-0.503,0.01-0.697l1.513-1.514C21.611,16.897,21.925,16.893,22.113,17.082z"/>
	</g>
	<g>
		<path fill="#D5D8DB" d="M18.018,17.082c-0.189,0.189-0.185,0.503,0.01,0.697l1.513,1.513c0.194,0.194,0.508,0.199,0.696,0.011
			c0.189-0.189,0.185-0.503-0.01-0.697l-1.513-1.514C18.52,16.897,18.206,16.893,18.018,17.082z"/>
	</g>
</g>
</svg>
