<?xml version="1.0" encoding="utf-8"?>
<!-- Generator: Adobe Illustrator 16.0.0, SVG Export Plug-In . SVG Version: 6.00 Build 0)  -->
<!DOCTYPE svg PUBLIC "-//W3C//DTD SVG 1.1//EN" "http://www.w3.org/Graphics/SVG/1.1/DTD/svg11.dtd">
<svg version="1.1" id="Layer_1" xmlns="http://www.w3.org/2000/svg" xmlns:xlink="http://www.w3.org/1999/xlink" x="0px" y="0px"
	 width="31px" height="31px" viewBox="0 0 31 31" enable-background="new 0 0 31 31" xml:space="preserve">
<path fill="#C2C4CD" d="M15.4,9.5c0,0-0.1,0-0.1,0c-2.2,0.5-2.9,2.3-2.8,3.4c0,1.2,0,3.5,0,3.5c0,1.7-0.6,1.8-0.8,2.2s0,0.8,0.9,0.8
	s1.9,0,1.9,0c0.3,1.3,3,1.5,3.3,0c1.3,0,2.4,0,2.6,0c1.1,0,0.2-1,0-1.4c-0.2-0.4-0.4-0.6-0.4-2.1c0-1.4,0-1.4,0-1.4s0,0.3,0,0
	c-0.5,0-0.4,0-0.8,0c-0.2,0.5-0.1-0.2-0.1,0.2c0,0.4-0.2,0.8-0.1,1.2c0,0,0,0.1,0,0.1c0,0,0,0,0,0.1c0.1,0.3,0.3,1.4,0.7,2
	c0.4,0.6,0.2,0.3,0.2,0.3l-6.7-0.1c0.6-1.1,0.5-2.3,0.5-2.6c0-0.2-0.1-2.7-0.1-2.7c0.1-1.6,1.4-2.5,1.9-2.7c0.5-0.1,0.5-0.4,0.5-0.6
	C15.8,9.6,15.4,9.5,15.4,9.5C15.4,9.5,15.5,9.5,15.4,9.5z"/>
<path fill="#FFFFFF" d="M15.2,19.4h1.9C16.7,20,15,19.8,15.2,19.4z"/>
<circle fill="#E73252" cx="19" cy="11" r="2.5"/>
</svg>
