<?xml version="1.0" encoding="utf-8"?>
<!-- Generator: Adobe Illustrator 16.0.0, SVG Export Plug-In . SVG Version: 6.00 Build 0)  -->
<!DOCTYPE svg PUBLIC "-//W3C//DTD SVG 1.1//EN" "http://www.w3.org/Graphics/SVG/1.1/DTD/svg11.dtd">
<svg version="1.1" id="Layer_1" xmlns="http://www.w3.org/2000/svg" xmlns:xlink="http://www.w3.org/1999/xlink" x="0px" y="0px"
	 width="31px" height="31px" viewBox="0 0 31 31" enable-background="new 0 0 31 31" xml:space="preserve">
<g>
	<g>
		<g>
			<path fill="#AFB6B9" d="M14.693,7.305c-4.166,0-7.543,3.377-7.543,7.542c0,4.166,3.377,7.543,7.543,7.543
				s7.543-3.377,7.543-7.543C22.236,10.682,18.859,7.305,14.693,7.305z M14.693,21.674c-3.771,0-6.826-3.057-6.826-6.826
				c0-3.77,3.056-6.826,6.826-6.826c3.77,0,6.826,3.056,6.826,6.826C21.52,18.617,18.463,21.674,14.693,21.674z"/>
			<path fill="#AFB6B9" d="M14.693,10.635c-1.512,0-2.737,1.484-2.737,3.315s1.226,3.314,2.737,3.314
				c1.513,0,2.737-1.483,2.737-3.314S16.206,10.635,14.693,10.635z M14.693,16.223c-1.036,0-1.877-1.018-1.877-2.272
				s0.841-2.272,1.877-2.272s1.876,1.018,1.876,2.272S15.729,16.223,14.693,16.223z"/>
		</g>
		<path fill="#AFB6B9" d="M9.158,18.838c1.293-1.551,2.885-2.291,3.723-2.414c0.838-0.122,2.718-0.459,4.24,0
			c1.522,0.46,2.948,2.628,2.948,2.628l-0.396,0.876l-0.379,0.223c0,0-0.218,0.006-0.606-0.938
			c-0.299-0.726-0.861-1.503-2.014-1.701c-1.299-0.224-2.418-0.447-3.671,0s-2.328,1.388-2.775,1.925s-0.759,0.853-0.759,0.853
			L9.158,18.838z"/>
	</g>
</g>
</svg>
