<?xml version="1.0" encoding="utf-8"?>
<!-- Generator: Adobe Illustrator 16.0.0, SVG Export Plug-In . SVG Version: 6.00 Build 0)  -->
<!DOCTYPE svg PUBLIC "-//W3C//DTD SVG 1.1//EN" "http://www.w3.org/Graphics/SVG/1.1/DTD/svg11.dtd">
<svg version="1.1" id="Layer_1" xmlns="http://www.w3.org/2000/svg" xmlns:xlink="http://www.w3.org/1999/xlink" x="0px" y="0px"
	 width="31px" height="31px" viewBox="0 0 31 31" enable-background="new 0 0 31 31" xml:space="preserve">
<path fill="#FFFFFF" stroke="#B3BABC" stroke-width="0.5" stroke-miterlimit="10" d="M20.552,13.371
	c-0.216,0.519-0.728,0.884-1.323,0.884c-0.788,0-1.428-0.637-1.434-1.424c-0.006,0.729-0.554,1.318-1.261,1.404v0.018
	c-0.026-0.001-0.051-0.008-0.077-0.01c-0.025,0.002-0.05,0.009-0.076,0.01v-0.018c-0.706-0.086-1.255-0.676-1.261-1.404
	c-0.005,0.787-0.645,1.424-1.433,1.424c-0.597,0-1.108-0.365-1.324-0.884c-0.237,0.399-0.661,0.667-1.151,0.694v7.625h1.254v-4.25
	h2.864v4.25h7.028v-7.74c-0.178,0.079-0.373,0.125-0.58,0.125C21.255,14.075,20.802,13.791,20.552,13.371z M20.747,18.469h-3.636
	v-2.327h3.636V18.469z"/>
<rect x="12.467" y="17.44" fill="#FFFFFF" stroke="#B3BABC" stroke-width="0.5" stroke-miterlimit="10" width="2.864" height="4.25"/>
<g>
	<polygon fill="none" points="18.389,9.21 16.534,9.203 16.534,9.21 	"/>
	<polygon fill="#A4ABB0" points="20.611,9.21 18.389,9.21 20.615,9.219 	"/>
	<path fill="#A4ABB0" d="M16.381,14.441c0.026,0,0.051-0.007,0.076-0.009c-0.025-0.001-0.051-0.005-0.076-0.008V14.441z"/>
	<path fill="#A4ABB0" d="M16.534,13.883V13.85c-0.026,0.004-0.05,0.014-0.076,0.017C16.484,13.869,16.507,13.882,16.534,13.883z"/>
	<polygon fill="none" points="16.381,9.203 14.527,9.21 16.381,9.21 	"/>
	<polygon fill="none" points="16.534,9.21 16.534,9.203 16.457,9.203 16.381,9.203 16.381,9.21 	"/>
	<polygon fill="#A4ABB0" points="16.534,9.202 16.457,9.203 16.534,9.203 	"/>
	<polygon fill="#A4ABB0" points="16.381,9.202 16.381,9.203 16.457,9.203 	"/>
	<polygon fill="#A4ABB0" points="16.457,9.203 16.534,9.202 16.534,8.578 16.381,8.578 16.381,9.202 	"/>
	<polygon fill="#A4ABB0" points="12.304,9.21 12.3,9.219 14.527,9.21 	"/>
	<path fill="#A4ABB0" d="M16.534,14.441v-0.017c-0.025,0.003-0.051,0.007-0.077,0.008C16.483,14.434,16.508,14.44,16.534,14.441z"/>
	<path fill="#A4ABB0" d="M16.381,13.883c0.027,0,0.05-0.014,0.077-0.017c-0.027-0.003-0.051-0.012-0.077-0.017V13.883z"/>
	<path fill="#A4ABB0" d="M16.458,13.866c-0.027,0.002-0.05,0.016-0.077,0.017v0.541c0.025,0.003,0.051,0.007,0.076,0.008
		c0.026-0.001,0.052-0.005,0.077-0.008v-0.541C16.507,13.882,16.484,13.869,16.458,13.866z"/>
	<g>
		<path fill="none" d="M17.306,12.794c-0.055-0.416-0.364-0.736-0.771-0.813v0.813H17.306z"/>
		<path fill="none" d="M21.885,11.417c-0.173-0.012-0.146-0.02-0.105-0.02C21.816,11.398,21.848,11.415,21.885,11.417
			c0.016,0.001,0.022,0.002,0.041,0.003L20.885,9.22l-0.27-0.001l1.038,2.192l0.22,0.463c-0.021-0.001-0.041-0.013-0.063-0.013
			c-0.522,0-0.941,0.417-0.962,0.933h1.511v0.815c0.203-0.144,0.341-0.357,0.387-0.612l-0.816-1.569
			C21.914,11.426,21.9,11.419,21.885,11.417z"/>
		<polygon fill="#A4ABB0" points="22.78,12.831 22.78,12.831 22.78,12.831 		"/>
		<path fill="#A4ABB0" d="M22.746,12.997c0.011-0.056,0.034-0.107,0.034-0.166v0v0h0.431l-0.319-0.673
			c-0.062-0.131-0.126-0.266-0.2-0.423c-0.21-0.176-0.476-0.276-0.762-0.307L22.746,12.997z"/>
		<path fill="none" d="M19.174,11.948c-0.491,0-0.879,0.373-0.941,0.846h1.883C20.053,12.32,19.665,11.948,19.174,11.948z"/>
		<path fill="#A4ABB0" d="M16.534,9.203l1.854,0.007h2.223l0.004,0.009l0.27,0.001l1.041,2.201c0.043-0.004-0.087-0.217-0.044-0.217
			c0.349,0,0.562,0.324,0.81,0.531l-1.494-3.157h-4.663V9.203L16.534,9.203z"/>
		<path fill="#A4ABB0" d="M21.93,11.428l-0.004-0.007c-0.019-0.001-0.025-0.002-0.041-0.003C21.9,11.419,21.914,11.426,21.93,11.428
			z"/>
		<path fill="#A4ABB0" d="M21.926,11.42l0.004,0.007c0.286,0.031,0.552,0.131,0.762,0.307c-0.248-0.207-0.461-0.531-0.81-0.531
			C21.839,11.203,21.969,11.417,21.926,11.42z"/>
		<path fill="#A4ABB0" d="M21.885,11.417c-0.037-0.003-0.068-0.02-0.105-0.02C21.739,11.398,21.712,11.405,21.885,11.417z"/>
		<path fill="#A4ABB0" d="M17.795,13c0-0.058-0.01-0.113-0.017-0.169h-0.462c0.002,0.029,0.017,0.055,0.017,0.084
			c0,0.475-0.348,0.85-0.799,0.934v0.033v0.541c0.707-0.086,1.255-0.676,1.261-1.404c0-0.003,0-0.006,0-0.009
			C17.795,13.007,17.795,13.004,17.795,13z"/>
		<path fill="#A4ABB0" d="M20.126,12.831c0.003,0.03,0.018,0.056,0.018,0.086c0,0.536-0.435,0.971-0.97,0.971
			s-0.97-0.435-0.97-0.971c0-0.031,0.015-0.057,0.018-0.086h-0.409c-0.007,0.056-0.017,0.111-0.018,0.169
			c0,0.003,0.002,0.006,0.002,0.009c0,0.003-0.002,0.007-0.002,0.01c0.006,0.787,0.646,1.424,1.434,1.424
			c0.596,0,1.107-0.365,1.323-0.884c-0.128-0.214-0.206-0.461-0.206-0.729H20.126z"/>
		<polygon fill="#A4ABB0" points="17.795,13 17.795,13.011 17.795,13.02 17.797,13.01 		"/>
		<path fill="#A4ABB0" d="M23.213,12.831c-0.127-0.264-0.222-0.464-0.321-0.673l0.319,0.673H22.78c0,0.23,0.157,0.241,0,0.23
			l-0.034-0.064c-0.046,0.255-0.184,0.468-0.387,0.612v0.53C22.861,13.916,23.213,13.415,23.213,12.831z"/>
		<path fill="#A4ABB0" d="M21.811,13.801c-0.535,0-0.969-0.435-0.97-0.97h-0.197c0.007,0.06,0.019,0.118,0.019,0.18
			c0,0.194-0.04,0.38-0.11,0.549c0.25,0.42,0.703,0.704,1.228,0.704c0.207,0,0.402-0.046,0.58-0.125v-0.53
			C22.201,13.721,22.019,13.801,21.811,13.801z"/>
		<path fill="#A4ABB0" d="M22.746,12.997l0.034,0.064c0.157,0.01,0,0,0-0.23l0,0C22.78,12.89,22.757,12.941,22.746,12.997z"/>
		<path fill="#A4ABB0" d="M22.691,11.734c0.074,0.158,0.139,0.292,0.2,0.423L22.691,11.734z"/>
		<path fill="#A4ABB0" d="M20.552,13.56c0.07-0.169,0.11-0.354,0.11-0.549c0-0.062-0.012-0.12-0.019-0.18h-0.298
			C20.346,13.098,20.424,13.346,20.552,13.56z"/>
		<path fill="none" d="M16.381,11.981c-0.407,0.077-0.716,0.397-0.771,0.813h0.771V11.981z"/>
		<path fill="none" d="M16.534,12.794v-0.813c-0.026-0.005-0.05-0.013-0.077-0.016c-0.026,0.003-0.051,0.011-0.076,0.016v0.813
			H16.534z"/>
		<path fill="none" d="M16.534,11.981v-0.032c-0.027,0-0.05,0.013-0.077,0.016C16.484,11.968,16.508,11.977,16.534,11.981z"/>
		<path fill="#A4ABB0" d="M10.135,12.831L10.135,12.831L10.135,12.831c0,0.059,0.023,0.11,0.034,0.166l0.816-1.569
			c-0.286,0.031-0.551,0.131-0.761,0.307l-0.519,1.097H10.135z"/>
		<polygon fill="#A4ABB0" points="10.135,12.831 10.135,12.831 10.135,12.831 		"/>
		<path fill="none" d="M16.381,11.949v0.032c0.025-0.005,0.05-0.013,0.076-0.016C16.431,11.962,16.408,11.95,16.381,11.949z"/>
		<path fill="#A4ABB0" d="M10.989,11.42l-0.004,0.007c0.016-0.002,0.029-0.009,0.045-0.01C11.015,11.418,11.008,11.419,10.989,11.42
			z"/>
		<path fill="#A4ABB0" d="M10.989,11.42l1.042-2.201L12.3,9.219l0.004-0.009h2.223l1.854-0.007v0V8.578h-4.662l-1.495,3.157
			c0.249-0.207,0.461-0.531,0.81-0.531C11.077,11.203,10.947,11.417,10.989,11.42z"/>
		<path fill="#A4ABB0" d="M10.989,11.42c-0.042-0.004,0.087-0.217,0.044-0.217c-0.349,0-0.561,0.324-0.81,0.531
			c0.21-0.175,0.475-0.276,0.761-0.307L10.989,11.42z"/>
		<path fill="#A4ABB0" d="M11.137,11.398c-0.038,0-0.069,0.017-0.106,0.02C11.204,11.405,11.176,11.398,11.137,11.398z"/>
		<path fill="#A4ABB0" d="M16.381,13.849c-0.45-0.083-0.798-0.458-0.798-0.934c0-0.03,0.015-0.055,0.017-0.084h-0.462
			C15.13,12.887,15.121,12.942,15.12,13c0,0.003,0.001,0.007,0.001,0.01c0,0.003-0.001,0.006-0.001,0.009
			c0.005,0.728,0.555,1.318,1.261,1.404v-0.541V13.849z"/>
		<path fill="#A4ABB0" d="M15.12,13c0-0.058-0.01-0.113-0.017-0.169h-0.409c0.003,0.03,0.018,0.056,0.018,0.086
			c0,0.536-0.434,0.971-0.97,0.971s-0.97-0.435-0.97-0.971c0-0.031,0.015-0.057,0.018-0.086h-0.22c0,0.267-0.078,0.515-0.206,0.729
			c0.216,0.519,0.727,0.884,1.324,0.884c0.788,0,1.428-0.637,1.433-1.424c0-0.003-0.001-0.007-0.001-0.01
			C15.119,13.007,15.12,13.004,15.12,13z"/>
		<path fill="#A4ABB0" d="M11.105,13.801c-0.477,0-0.854-0.351-0.936-0.804l-0.034,0.064c-0.157,0.01,0,0,0-0.23h-0.43l0.519-1.097
			c-0.193,0.408-0.315,0.667-0.521,1.097c0,0.791,0.643,1.433,1.434,1.433c0.026,0,0.05-0.009,0.076-0.01v-0.474
			C11.176,13.784,11.143,13.801,11.105,13.801z"/>
		<path fill="#A4ABB0" d="M12.364,13.56c-0.07-0.169-0.11-0.354-0.11-0.549c0-0.062,0.011-0.12,0.018-0.18h-0.197
			c0,0.498-0.379,0.893-0.862,0.948v0.474C11.703,14.227,12.126,13.958,12.364,13.56z"/>
		<path fill="#A4ABB0" d="M10.135,12.831c0,0.23-0.157,0.241,0,0.23l0.034-0.064C10.159,12.941,10.135,12.89,10.135,12.831
			L10.135,12.831z"/>
		<path fill="#A4ABB0" d="M12.272,12.831c-0.007,0.06-0.018,0.118-0.018,0.18c0,0.194,0.04,0.38,0.11,0.549
			c0.127-0.214,0.206-0.461,0.206-0.729H12.272z"/>
	</g>
</g>
</svg>
