<?xml version="1.0" encoding="utf-8"?>
<!-- Generator: Adobe Illustrator 16.0.0, SVG Export Plug-In . SVG Version: 6.00 Build 0)  -->
<!DOCTYPE svg PUBLIC "-//W3C//DTD SVG 1.1//EN" "http://www.w3.org/Graphics/SVG/1.1/DTD/svg11.dtd">
<svg version="1.1" id="Layer_1" xmlns="http://www.w3.org/2000/svg" xmlns:xlink="http://www.w3.org/1999/xlink" x="0px" y="0px"
	 width="31px" height="31px" viewBox="0 0 31 31" enable-background="new 0 0 31 31" xml:space="preserve">
<g>
	<path fill="none" stroke="#B2B5BA" stroke-width="0.5" stroke-miterlimit="10" d="M19.801,19.92c0,0.275-0.225,0.5-0.5,0.5h-9.236
		c-0.275,0-0.5-0.225-0.5-0.5v-6.55c0-0.275,0-0.725,0-1v-1.551c0-0.275,0.225-0.5,0.5-0.5h9.236c0.275,0,0.5,0.225,0.5,0.5V19.92z"
		/>
</g>
<g>
	<path fill="#FFFFFF" d="M12.887,10.96c0,0.275-0.225,0.5-0.5,0.5h-0.51c-0.275,0-0.5-0.225-0.5-0.5V9.812
		c0-0.275,0.225-0.5,0.5-0.5h0.51c0.275,0,0.5,0.225,0.5,0.5V10.96z"/>
	<path fill="none" stroke="#B2B5B9" stroke-width="0.5" stroke-miterlimit="10" d="M12.887,10.96c0,0.275-0.225,0.5-0.5,0.5h-0.51
		c-0.275,0-0.5-0.225-0.5-0.5V9.812c0-0.275,0.225-0.5,0.5-0.5h0.51c0.275,0,0.5,0.225,0.5,0.5V10.96z"/>
</g>
<g>
	<path fill="#FFFFFF" d="M17.799,10.96c0,0.275-0.225,0.5-0.5,0.5h-0.51c-0.275,0-0.5-0.225-0.5-0.5V9.812
		c0-0.275,0.225-0.5,0.5-0.5h0.51c0.275,0,0.5,0.225,0.5,0.5V10.96z"/>
	<path fill="none" stroke="#B2B5BA" stroke-width="0.5" stroke-miterlimit="10" d="M17.799,10.96c0,0.275-0.225,0.5-0.5,0.5h-0.51
		c-0.275,0-0.5-0.225-0.5-0.5V9.812c0-0.275,0.225-0.5,0.5-0.5h0.51c0.275,0,0.5,0.225,0.5,0.5V10.96z"/>
</g>
<path fill="none" stroke="#B2B5BA" stroke-width="0.5" stroke-miterlimit="10" d="M9.565,12.87c4.262,0,10.236,0,10.236,0"/>
</svg>
