<?xml version="1.0" encoding="utf-8"?>
<!-- Generator: Adobe Illustrator 16.0.0, SVG Export Plug-In . SVG Version: 6.00 Build 0)  -->
<!DOCTYPE svg PUBLIC "-//W3C//DTD SVG 1.1//EN" "http://www.w3.org/Graphics/SVG/1.1/DTD/svg11.dtd">
<svg version="1.1" id="Layer_1" xmlns="http://www.w3.org/2000/svg" xmlns:xlink="http://www.w3.org/1999/xlink" x="0px" y="0px"
	 width="31px" height="31px" viewBox="0 0 31 31" enable-background="new 0 0 31 31" xml:space="preserve">
<g>
	<g>
		<path fill="#ADB0BB" d="M18.4,13.6c0.3,1.2,0.1,2.5-0.7,3.6c-1.4,1.9-4.1,2.4-6,1c-1.9-1.4-2.3-4.1-1-6c1.4-1.9,3.9-2.3,5.8-1.1
			c0.1-0.1,0.2-0.3,0.3-0.4c-2.1-1.4-5-0.9-6.6,1.2C8.8,14,9.3,17,11.5,18.6c2.2,1.6,5.2,1.1,6.8-1.1c0.9-1.2,1.1-2.7,0.8-4.1
			L18.4,13.6z"/>
		<circle fill="#ADB0BB" cx="16.7" cy="10.8" r="0.3"/>
		<circle fill="#ADB0BB" cx="18.7" cy="13.5" r="0.3"/>
		<g>
			<path fill="#ADB0BB" d="M14.1,15.2c0.2,0.2,0.2,0.4,0,0.5c-0.1,0.1-0.4,0.1-0.5-0.1l-1.2-1.3c-0.2-0.2-0.2-0.4,0-0.5
				c0.1-0.1,0.4-0.1,0.5,0.1L14.1,15.2z"/>
		</g>
		<g>
			<path fill="#ADB0BB" d="M14.3,15.7c-0.2,0.2-0.4,0.2-0.5,0c-0.1-0.1-0.1-0.4,0.1-0.5l4.8-4.6c0.2-0.2,0.4-0.2,0.5,0
				c0.1,0.1,0.1,0.4-0.1,0.5L14.3,15.7z"/>
		</g>
	</g>
</g>
</svg>
