<?xml version="1.0" encoding="utf-8"?>
<!-- Generator: Adobe Illustrator 16.0.0, SVG Export Plug-In . SVG Version: 6.00 Build 0)  -->
<!DOCTYPE svg PUBLIC "-//W3C//DTD SVG 1.1//EN" "http://www.w3.org/Graphics/SVG/1.1/DTD/svg11.dtd">
<svg version="1.1" id="Layer_1" xmlns="http://www.w3.org/2000/svg" xmlns:xlink="http://www.w3.org/1999/xlink" x="0px" y="0px"
	 width="31px" height="31px" viewBox="0 0 31 31" enable-background="new 0 0 31 31" xml:space="preserve">
<polygon fill="#787878" points="17.259,19.73 17.259,19.963 10.969,19.963 10.969,15.973 14.942,15.973 15.472,15.263 15.48,15.179 
	10.969,15.179 10.969,7.199 17.259,7.199 17.259,8.097 18.229,8.186 18.229,6.408 10.214,6.516 10.214,20.961 18.229,20.894 
	18.229,20.045 18.033,20.309 "/>
<polygon fill="#787878" points="22.462,12.805 20.553,15.365 20.389,17.149 23.706,12.7 20.983,10.67 20.895,11.636 "/>
<polygon fill="#787878" points="18.764,17.764 18.229,18.479 18.229,20.045 19.856,17.864 "/>
<polygon fill="#787878" points="18.015,18.768 17.259,18.205 17.259,19.73 18.033,20.309 18.229,20.045 18.229,18.479 "/>
<polygon fill="#787878" points="15.472,15.263 14.942,15.973 15.407,15.973 "/>
<polygon fill="#787878" points="17.259,17.626 17.259,18.205 18.015,18.768 18.229,18.479 18.229,17.715 "/>
<polygon fill="#787878" points="20.181,9.196 20.105,10.016 20.983,10.67 21.187,8.457 18.229,8.186 18.229,9.016 "/>
<polygon fill="#787878" points="17.259,8.927 18.229,9.016 18.229,8.186 17.259,8.097 "/>
<polygon fill="#787878" points="15.48,15.179 15.472,15.263 15.535,15.179 "/>
<polygon fill="#787878" points="20.017,10.981 20.895,11.636 20.983,10.67 20.105,10.016 "/>
<polygon fill="#787878" points="18.764,17.764 19.856,17.864 20.389,17.149 20.553,15.365 "/>
<polygon fill="#787878" points="16.064,15.973 16.345,15.597 16.383,15.179 15.535,15.179 15.472,15.263 15.407,15.973 "/>
<polygon fill="#787878" points="16.345,15.597 16.064,15.973 16.31,15.973 "/>
<polygon fill="#787878" points="17.259,17.626 18.229,17.715 18.229,16.488 17.259,16.398 "/>
<polygon fill="#787878" points="18.229,11.565 18.229,9.016 17.259,8.927 17.259,12.867 "/>
<polygon fill="#787878" points="18.229,13.069 18.229,11.565 17.259,12.867 17.259,14.371 "/>
<polygon fill="#787878" points="16.383,15.179 16.345,15.597 16.656,15.179 "/>
<polygon fill="#787878" points="17.259,14.371 17.259,15.179 16.656,15.179 16.345,15.597 16.31,15.973 17.259,15.973 
	17.259,16.398 18.229,16.488 18.229,13.069 "/>
<polygon fill="#787878" points="20.017,10.981 18.229,17.626 17.583,18.904 17.744,19.456 18.8,18.019 20.71,11.636 20.983,11.333 
	"/>
<circle fill="#787878" cx="14.179" cy="18.203" r="1.054"/>
</svg>
