<?xml version="1.0" encoding="utf-8"?>
<!-- Generator: Adobe Illustrator 16.0.0, SVG Export Plug-In . SVG Version: 6.00 Build 0)  -->
<!DOCTYPE svg PUBLIC "-//W3C//DTD SVG 1.1//EN" "http://www.w3.org/Graphics/SVG/1.1/DTD/svg11.dtd">
<svg version="1.1" id="Layer_1" xmlns="http://www.w3.org/2000/svg" xmlns:xlink="http://www.w3.org/1999/xlink" x="0px" y="0px"
	 width="31px" height="31px" viewBox="0 0 31 31" enable-background="new 0 0 31 31" xml:space="preserve">
<circle fill="none" stroke="#B4B4B4" stroke-width="0.5" stroke-miterlimit="10" cx="15.011" cy="14.804" r="6.524"/>
<g>
	<g>
		<path fill="#B4B4B4" d="M10.842,19.663c0.451-1.27,1.439-1.558,2.461-2.171c0.307-0.184,0.664-0.461,0.783-0.813
			c0.608-1.792-1.868-3.423,0.356-4.845c0.801-0.512,1.615-0.159,2.271,0.374c0.877,0.711,0.541,1.878,0.142,2.732
			c-0.226,0.483-0.825,0.958-0.825,1.528c0,0.405,0.291,0.755,0.61,0.972c0.978,0.666,2.08,0.944,2.803,1.958
			c0.186,0.261,0.619,0.011,0.432-0.252c-0.563-0.791-1.264-1.217-2.126-1.645c-0.8-0.397-1.302-1.044-0.739-1.857
			c0.257-0.371,0.428-0.768,0.592-1.186c0.698-1.787-0.829-3.563-2.688-3.344c-1.626,0.191-2.278,1.971-1.76,3.318
			c0.229,0.595,0.511,1.063,0.544,1.719c0.037,0.72-0.98,1.114-1.488,1.378c-1.034,0.537-1.456,0.893-1.851,2.001
			C10.251,19.835,10.734,19.965,10.842,19.663L10.842,19.663z"/>
	</g>
</g>
</svg>
