<?xml version="1.0" encoding="utf-8"?>
<!-- Generator: Adobe Illustrator 16.0.0, SVG Export Plug-In . SVG Version: 6.00 Build 0)  -->
<!DOCTYPE svg PUBLIC "-//W3C//DTD SVG 1.1//EN" "http://www.w3.org/Graphics/SVG/1.1/DTD/svg11.dtd">
<svg version="1.1" id="Layer_1" xmlns="http://www.w3.org/2000/svg" xmlns:xlink="http://www.w3.org/1999/xlink" x="0px" y="0px"
	 width="31px" height="31px" viewBox="0 0 31 31" enable-background="new 0 0 31 31" xml:space="preserve">
<path fill="#AAB2B6" d="M17.359,10.221c0.276-1.167,1.177-2.028,2.257-2.028c1.3,0,2.353,1.24,2.353,2.769
	c0,1.529-1.053,2.768-2.353,2.768c-0.434,0-0.834-0.147-1.182-0.387c0,0.037,0.009,0.071,0.009,0.107
	c0,0.302-0.03,0.596-0.075,0.882c0.383,0.196,0.804,0.309,1.248,0.309c0.629,0,1.212-0.223,1.702-0.599L21.11,13.89l0.775-1.079
	l0.287,0.261c0.356-0.598,0.57-1.323,0.57-2.11c0-2.032-1.399-3.68-3.127-3.68c-1.305,0-2.421,0.941-2.89,2.276
	C16.958,9.752,17.167,9.976,17.359,10.221z"/>
<path fill="#AAB2B6" d="M24.986,15.634l-2.813-2.562c-0.23,0.384-0.52,0.713-0.854,0.97l0.512,0.374l2.243,1.938l0.027,1.827
	l-4.196,0.013l0.928,0.846h4.154V15.634z"/>
<path fill="#AAB2B6" d="M21.11,13.89l0.208,0.152c0.335-0.257,0.624-0.586,0.854-0.97l-0.287-0.261L21.11,13.89z"/>
<path fill="#AAB2B6" d="M17.288,14.506c-0.307,1.165-1.095,2.069-2.098,2.394l-0.004,1.23c0.511-0.121,0.985-0.359,1.408-0.683
	l-0.271-0.197l1.007-1.402l0.372,0.339c0.327-0.546,0.558-1.175,0.666-1.856c-0.122-0.063-0.235-0.143-0.348-0.222l0.001,0.013
	L17.288,14.506z"/>
<path fill="#AAB2B6" d="M12.311,17.537c0.532,0.374,1.142,0.604,1.796,0.655V17.01c-1.556-0.166-2.779-1.687-2.779-3.561
	c0-1.985,1.368-3.595,3.055-3.595c0.822,0,1.565,0.387,2.114,1.008c0.011-0.46,0.088-0.901,0.229-1.304
	c-0.663-0.554-1.469-0.887-2.344-0.887c-2.243,0-4.061,2.139-4.061,4.778c0,1.172,0.372,2.23,0.967,3.061l0.937,0.129L12.311,17.537
	z"/>
<path fill="#AAB2B6" d="M17.264,10.961c0,1.02,0.474,1.9,1.171,2.381c-0.023-1.206-0.428-2.295-1.075-3.121
	C17.304,10.458,17.264,10.703,17.264,10.961z"/>
<path fill="#AAB2B6" d="M17.429,13.346l0.525,0.073l0.066,0.691c0.112,0.079,0.226,0.159,0.348,0.222
	c0.045-0.287,0.075-0.58,0.075-0.882c0-0.037-0.009-0.071-0.009-0.107c-0.697-0.48-1.171-1.361-1.171-2.381
	c0-0.258,0.04-0.503,0.096-0.74c-0.192-0.246-0.401-0.469-0.633-0.663c-0.142,0.403-0.219,0.844-0.229,1.304
	C17.055,11.494,17.404,12.37,17.429,13.346z"/>
<path fill="#AAB2B6" d="M17.288,14.506l0.733-0.383l-0.001-0.013c-0.215-0.151-0.417-0.321-0.595-0.526
	C17.416,13.906,17.365,14.212,17.288,14.506z"/>
<path fill="#AAB2B6" d="M15.186,18.131l0.004-1.23c-0.259,0.083-0.526,0.143-0.808,0.143c-0.095,0-0.184-0.022-0.276-0.033v1.183
	c0.093,0.008,0.182,0.033,0.276,0.033C14.658,18.226,14.926,18.191,15.186,18.131z"/>
<path fill="#AAB2B6" d="M17.426,13.584c0.178,0.205,0.38,0.375,0.595,0.526l-0.066-0.691l-0.525-0.073
	c0.001,0.035,0.009,0.068,0.009,0.103C17.438,13.496,17.428,13.539,17.426,13.584z"/>
<path fill="#AAB2B6" d="M16.594,17.448l0.664,0.485l0.309,0.268l2.338-0.008l-2.202-2.005
	C17.404,16.688,17.028,17.115,16.594,17.448z"/>
<path fill="#AAB2B6" d="M20.17,20.45l0.036,2.372L8.631,22.857l0.011-3.389l3.669-1.914l-0.001-0.018
	c-0.39-0.274-0.731-0.621-1.021-1.026l-0.026-0.004l-4.033,2.686v4.744h14.126v-4.421l-0.523-0.477h-2.295L20.17,20.45z"/>
<polygon fill="#AAB2B6" points="17.566,18.201 18.537,19.039 20.832,19.039 19.904,18.193 "/>
<path fill="#AAB2B6" d="M12.311,17.537l-0.085-0.897l-0.937-0.129C11.58,16.916,11.921,17.263,12.311,17.537z"/>
<path fill="#AAB2B6" d="M16.323,17.251l0.271,0.197c0.435-0.333,0.811-0.761,1.108-1.26l-0.372-0.339L16.323,17.251z"/>
</svg>
