<?xml version="1.0" encoding="utf-8"?>
<!-- Generator: Adobe Illustrator 16.0.0, SVG Export Plug-In . SVG Version: 6.00 Build 0)  -->
<!DOCTYPE svg PUBLIC "-//W3C//DTD SVG 1.1//EN" "http://www.w3.org/Graphics/SVG/1.1/DTD/svg11.dtd">
<svg version="1.1" id="Layer_1" xmlns="http://www.w3.org/2000/svg" xmlns:xlink="http://www.w3.org/1999/xlink" x="0px" y="0px"
	 width="31px" height="31px" viewBox="0 0 31 31" enable-background="new 0 0 31 31" xml:space="preserve">
<g>
	<path fill="#B4B4B5" d="M22.037,14.138c0,0.275-0.225,0.5-0.5,0.5H9.812c-0.275,0-0.5-0.225-0.5-0.5v-0.082
		c0-0.275,0.225-0.5,0.5-0.5h11.726c0.275,0,0.5,0.225,0.5,0.5V14.138z"/>
</g>
<g>
	<path fill="#B4B4B5" d="M15.715,7.735c0.275,0,0.5,0.225,0.5,0.5v11.724c0,0.275-0.225,0.5-0.5,0.5h-0.082
		c-0.275,0-0.5-0.225-0.5-0.5V8.235c0-0.275,0.225-0.5,0.5-0.5H15.715z"/>
</g>
</svg>
