<?xml version="1.0" encoding="utf-8"?>
<!-- Generator: Adobe Illustrator 16.0.0, SVG Export Plug-In . SVG Version: 6.00 Build 0)  -->
<!DOCTYPE svg PUBLIC "-//W3C//DTD SVG 1.1//EN" "http://www.w3.org/Graphics/SVG/1.1/DTD/svg11.dtd">
<svg version="1.1" id="Layer_1" xmlns="http://www.w3.org/2000/svg" xmlns:xlink="http://www.w3.org/1999/xlink" x="0px" y="0px"
	 width="100px" height="100px" viewBox="0 0 100 100" enable-background="new 0 0 100 100" xml:space="preserve">
<polygon fill="#FFFFFF" points="71.3,46.1 71.3,46.1 71.3,46.1 "/>
<g>
	<path fill="#FFFFFF" d="M61,61.1c0.3,0.1,0.6,0.2,0.8,0.2C61.6,61.2,61.3,61.1,61,61.1z"/>
	<path fill="#3657A7" d="M23.4,46.1c4.2,3.6,9.2,4.6,13.4,4.8c13.8-1,25.5-4.4,30.8-5.4c-2.9-0.6-4.8-1.4-6.1-2.2
		C52.4,45.7,40.1,47,23.4,46.1z"/>
	<g>
		<g>
			<path fill="#5A7FC0" d="M60.1,38.2c-0.7,0.8-1.6,3,1.4,5c6.4-1.7,11.2-4,14.8-6.5c4.4-7.3-2.2-9.6-6.3-8.1
				c-2.2,1.4-17.8,8.8-45.3,9c-1.7,0-5.5,4.6-1.4,8.4C23.4,46.1,61.1,37,60.1,38.2z"/>
			<path fill="#5A7FC0" d="M61.5,43.3c-3-2-2.1-4.2-1.4-5c1-1.3-36.7,7.9-36.7,7.9C40.1,47,52.4,45.7,61.5,43.3z"/>
		</g>
	</g>
	<polygon fill="#FFFFFF" points="61.8,61.3 61.8,61.3 61.8,61.3 	"/>
	<path fill="#3657A7" d="M33.7,59.8c0.1,0.1,4.6,3.2,9.4,5c0.3-0.2,0.5-0.3,0.8-0.3c6.1-0.3,13.1-2,16-3.4c0.4,0,0.7,0,1.1,0
		c-3.4-1-5.6-1.8-7.2-2.7c-7.4,1.2-15.2,2-18.4,2C34.8,60.3,34.2,60,33.7,59.8z"/>
	<g>
		<path fill="#5A7FC0" d="M67.9,45.4c-0.1,0-0.2,0-0.3,0.1c1.1,0.2,2.3,0.4,3.7,0.6C70.4,45.5,69.2,45.2,67.9,45.4z"/>
		<path fill="#5A7FC0" d="M44.6,51.4c3.3,1,26.6-5.2,26.7-5.2c0,0,0,0,0,0c-1.4-0.2-2.6-0.4-3.7-0.6c-5.2,1.1-17,4.4-30.8,5.4
			C40.2,51.1,43.1,50.9,44.6,51.4z"/>
		<g>
			<g>
				<path fill="#5A7FC0" d="M44.6,51.4c-1.5-0.5-4.4-0.2-7.8-0.4c-0.4,0-0.9,0.1-1.3,0.1c-2.8,0.2-6.1,6.2-1.8,8.8c0,0,0,0,0,0
					s17-5.9,17-5c0,0.6-0.2,1.9,3.1,3.7c6.1-1,12-2.3,15.2-3.5c5.2-2.1,4.9-6.9,2.3-8.8C71.2,46.1,47.9,52.4,44.6,51.4z"/>
				<path fill="#5A7FC0" d="M50.8,54.8c0-0.9-17,5-17,5s0,0,0,0c0.5,0.3,1.1,0.5,1.8,0.7c3.2,0,10.9-0.8,18.4-2
					C50.6,56.7,50.8,55.4,50.8,54.8z"/>
			</g>
		</g>
	</g>
	<g>
		<g>
			<path fill="#5A7FC0" d="M43.1,64.8c-2.1,1.4-3.2,7.6,1.7,8.8c7-0.3,7-0.3,13.7-1.6c10.2-2.4,7.3-9.2,3.3-10.7c0,0-5.3,3-11.3,4.5
				C48.4,66.4,45.7,65.8,43.1,64.8z"/>
			<path fill="#5A7FC0" d="M59.9,61c-2.9,1.4-9.8,3.1-16,3.4c-0.3,0-0.6,0.1-0.8,0.3c2.6,1,5.3,1.6,7.4,1.1c6-1.5,11.3-4.5,11.3-4.5
				c0,0,0,0,0,0c-0.3-0.1-0.6-0.2-0.8-0.2C60.6,61,60.2,61,59.9,61z"/>
		</g>
	</g>
</g>
</svg>
