<?xml version="1.0" encoding="utf-8"?>
<!-- Generator: Adobe Illustrator 16.0.0, SVG Export Plug-In . SVG Version: 6.00 Build 0)  -->
<!DOCTYPE svg PUBLIC "-//W3C//DTD SVG 1.1//EN" "http://www.w3.org/Graphics/SVG/1.1/DTD/svg11.dtd">
<svg version="1.1" id="Layer_1" xmlns="http://www.w3.org/2000/svg" xmlns:xlink="http://www.w3.org/1999/xlink" x="0px" y="0px"
	 width="100px" height="100px" viewBox="0 0 100 100" enable-background="new 0 0 100 100" xml:space="preserve">
<path fill="#5A7FC0" d="M68.364,28.581c0-1.854,0.716-3.517,1.845-4.661c-13.047,5.377-27.306,8.402-42.255,8.565
	c2.175,0.8,3.743,3.038,3.743,5.681c0,0.115-0.01,0.227-0.016,0.339c7.919-2.333,19.376-4.993,22.755-2.056
	c1.503,1.305,3.668,2.334,6.001,3.139c4.783-1.328,9.452-2.929,13.987-4.789c-0.185,0.021-0.371,0.033-0.561,0.033
	C70.827,34.832,68.364,32.033,68.364,28.581z"/>
<path fill="#5A7FC0" d="M26.32,44.16c0.124,0,0.246,0.007,0.369,0.007c0.84,0,1.678-0.015,2.514-0.03
	c-0.281-0.16-0.554-0.316-0.816-0.471C27.751,43.967,27.054,44.143,26.32,44.16z"/>
<path fill="#5A7FC0" d="M73.868,22.332c-1.209,0.549-2.428,1.081-3.659,1.588c-1.129,1.145-1.845,2.807-1.845,4.661
	c0,3.452,2.463,6.251,5.5,6.251c0.189,0,0.376-0.012,0.561-0.033c0.863-0.354,1.724-0.716,2.578-1.089
	c1.426-1.13,2.361-3.003,2.361-5.129C79.364,25.131,76.903,22.334,73.868,22.332z"/>
<path fill="#5A7FC0" d="M23.739,41.082c0,0,3.358-1.225,7.88-2.559c0.006-0.119,0.016-0.236,0.016-0.357
	c0-2.643-1.568-4.881-3.743-5.681c-0.422,0.005-0.842,0.015-1.265,0.015c-0.731,0-1.456-0.027-2.184-0.041
	c-2.209,0.779-3.809,3.039-3.809,5.707c0,3.225,2.332,5.846,5.253,5.987c0.124,0.001,0.246,0.007,0.37,0.007
	c0.747-0.018,1.457-0.199,2.102-0.51c-2.388-1.406-3.997-2.568-3.997-2.568H23.739z"/>
<path fill="#3556A6" d="M37.333,52.647c1.698,1.533,4.75,4.031,8.41,5.908c0.376-0.158,0.768-0.287,1.19-0.348l14.885-2.158
	l0.011,0.076c0.034-0.006,0.065-0.02,0.1-0.025c0.324-0.047,0.645-0.057,0.959-0.041c-2.894-1.305-7.117-3.408-9.557-5.531
	l-14.676,2.129C38.203,52.722,37.763,52.702,37.333,52.647z"/>
<path fill="#5A7FC0" d="M68.504,41.408l-0.5,0.072c0.085,0.016,0.169,0.03,0.254,0.045C68.341,41.488,68.418,41.441,68.504,41.408z"
	/>
<path fill="#5A7FC0" d="M65.396,46.686c-0.124-0.855,0.001-1.681,0.288-2.434c-7.635,1.914-18.903,4.471-24.075,4.314
	c0.265,0.492,0.465,1.028,0.55,1.613c0.068,0.467,0.045,0.922-0.016,1.367c3.779-1.244,7.886-2.021,8.847,0.027
	c0.31,0.66,0.914,1.346,1.699,2.029l18.027-2.613l-0.021-0.148C68.115,51.08,65.771,49.277,65.396,46.686z"/>
<path fill="#5A7FC0" d="M35.239,54.342c0,0,0.965-0.471,2.414-1.088l-0.817-5.637c-0.743-0.242-1.482-0.518-2.213-0.816
	c-1.536,1.014-2.444,2.843-2.163,4.785c0.323,2.227,2.102,3.863,4.23,4.137C35.773,54.895,35.239,54.342,35.239,54.342z"/>
<path fill="#5A7FC0" d="M36.836,47.617l0.817,5.637c1.238-0.527,2.83-1.161,4.489-1.707c0.061-0.445,0.084-0.9,0.016-1.367
	c-0.085-0.585-0.285-1.121-0.55-1.613c-0.311-0.009-0.605-0.025-0.87-0.055C39.476,48.37,38.155,48.045,36.836,47.617z"/>
<path fill="#5A7FC0" d="M69.369,41.711c2.216,0.352,3.793,0.496,3.993,0.514c-1.03-0.854-2.393-1.299-3.821-1.092
	c-0.363,0.053-0.708,0.15-1.037,0.275l0.805-0.117L69.369,41.711z"/>
<path fill="#5A7FC0" d="M70.694,50.842c0.085-0.008,0.168,0.002,0.254-0.01c2.676-0.389,4.534-2.875,4.146-5.553
	c-0.181-1.246-0.827-2.3-1.723-3.047c-0.1,0.027-1.536,0.428-3.778,1.016L70.694,50.842z"/>
<path fill="#5A7FC0" d="M65.684,44.252c-0.287,0.753-0.412,1.578-0.288,2.434c0.375,2.592,2.72,4.395,5.299,4.156l-1.102-7.594
	C68.468,43.544,67.144,43.885,65.684,44.252z"/>
<path fill="#5A7FC0" d="M69.369,41.711l-0.061-0.42l-0.805,0.117c-0.086,0.033-0.163,0.08-0.246,0.117
	C68.643,41.593,69.015,41.654,69.369,41.711z"/>
<path fill="#5A7FC0" d="M57.782,61.653c-0.054-0.367-0.056-0.73-0.028-1.088c-1.822,0.346-3.81,0.473-5.826,0.162
	c0.27,0.494,0.472,1.037,0.558,1.627c0.388,2.678-1.468,5.164-4.147,5.553l14.332-2.078C60.258,65.849,58.138,64.108,57.782,61.653z
	"/>
<path fill="#5A7FC0" d="M45.743,58.556c-2.008,0.846-3.284,2.949-2.956,5.205c0.388,2.678,2.874,4.533,5.552,4.146l-1.262-8.711
	C46.624,58.993,46.179,58.78,45.743,58.556z"/>
<path fill="#5A7FC0" d="M52.485,62.354c-0.086-0.59-0.288-1.133-0.558-1.627c-0.557-0.086-1.114-0.197-1.672-0.354
	c-1.089-0.309-2.151-0.715-3.18-1.178l1.262,8.711C51.018,67.519,52.873,65.032,52.485,62.354z"/>
<path fill="#5A7FC0" d="M62.887,56.06c1.603,0.723,2.793,1.199,3.045,1.299C65.107,56.603,64.046,56.12,62.887,56.06z"/>
<path fill="#5A7FC0" d="M63.225,65.749l-0.555,0.08c0.221-0.002,0.44,0.004,0.665-0.029c2.676-0.389,4.534-2.875,4.146-5.553
	c-0.166-1.145-0.729-2.123-1.513-2.855c-0.081,0.053-1.5,0.953-3.689,1.836L63.225,65.749z"/>
<path fill="#5A7FC0" d="M62.278,59.228c-1.284,0.518-2.83,1.018-4.524,1.338c-0.027,0.357-0.025,0.721,0.028,1.088
	c0.355,2.455,2.476,4.195,4.888,4.176l0.555-0.08L62.278,59.228z"/>
<path fill="#1F436E" d="M65.985,57.38c0,0-0.021-0.008-0.054-0.021c0.012,0.012,0.023,0.021,0.036,0.033
	C65.97,57.39,65.985,57.38,65.985,57.38z"/>
<path fill="#5A7FC0" d="M50.989,51.574c-0.96-2.049-5.067-1.271-8.847-0.027c-0.29,2.107-1.918,3.863-4.13,4.186l14.676-2.129
	C51.903,52.92,51.299,52.234,50.989,51.574z"/>
<path fill="#5A7FC0" d="M38.012,55.732l-0.359-2.479c-1.449,0.617-2.414,1.088-2.414,1.088s0.534,0.553,1.452,1.381
	C37.122,55.777,37.562,55.797,38.012,55.732z"/>
<path fill="#5A7FC0" d="M38.012,55.732c2.212-0.322,3.841-2.078,4.13-4.186c-1.659,0.546-3.251,1.18-4.489,1.707L38.012,55.732z"/>
<path fill="#5A7FC0" d="M51.928,60.728c2.017,0.311,4.004,0.184,5.826-0.162c0.172-2.199,1.817-4.064,4.074-4.439l-0.011-0.076
	l-14.885,2.158C49.02,57.905,50.977,58.976,51.928,60.728z"/>
<path fill="#5A7FC0" d="M46.933,58.208c-0.422,0.061-0.814,0.189-1.19,0.348c0.437,0.225,0.881,0.438,1.333,0.641L46.933,58.208z"/>
<path fill="#5A7FC0" d="M50.256,60.374c0.558,0.156,1.115,0.268,1.672,0.354c-0.951-1.752-2.908-2.822-4.995-2.52l0.144,0.988
	C48.105,59.659,49.167,60.065,50.256,60.374z"/>
<path fill="#5A7FC0" d="M61.828,56.126l0.45,3.102c2.189-0.883,3.608-1.783,3.689-1.836c-0.013-0.012-0.024-0.021-0.036-0.033
	c-0.252-0.1-1.442-0.576-3.045-1.299c-0.314-0.016-0.635-0.006-0.959,0.041C61.894,56.106,61.862,56.12,61.828,56.126z"/>
<path fill="#5A7FC0" d="M57.754,60.565c1.694-0.32,3.24-0.82,4.524-1.338l-0.45-3.102C59.571,56.501,57.926,58.366,57.754,60.565z"
	/>
<path fill="#3657A7" d="M34.623,46.801c0.583-0.385,1.247-0.66,1.983-0.768h0l31.397-4.553c-2.3-0.41-5.031-1.02-7.566-1.893
	c-9.968,2.768-20.434,4.336-31.234,4.549C30.804,45.045,32.671,46.002,34.623,46.801z"/>
<path fill="#255392" d="M31.682,38.505c-0.021,0.007-0.041,0.013-0.062,0.019c-0.125,2.295-1.425,4.242-3.259,5.127
	c0.009,0.006,0.017,0.01,0.026,0.016C30.244,42.786,31.563,40.822,31.682,38.505z"/>
<path fill="#255392" d="M73.391,42.227c0,0-0.015-0.001-0.028-0.002c0.003,0.002,0.006,0.006,0.009,0.008
	C73.374,42.231,73.391,42.227,73.391,42.227z"/>
<path fill="#5A7FC0" d="M31.682,38.505c-0.119,2.317-1.438,4.281-3.294,5.161c0.263,0.154,0.536,0.311,0.816,0.471
	c10.8-0.213,21.266-1.781,31.234-4.549c-2.333-0.805-4.498-1.834-6.001-3.139C51.058,33.512,39.601,36.172,31.682,38.505z"/>
<path fill="#5A7FC0" d="M31.62,38.523c-4.522,1.334-7.88,2.559-7.88,2.559h0.625c0,0,1.608,1.162,3.997,2.568
	C30.195,42.766,31.495,40.818,31.62,38.523z"/>
<path fill="#5A7FC0" d="M41.609,48.566c5.171,0.156,16.44-2.4,24.075-4.314c0.458-1.205,1.373-2.191,2.574-2.727
	c-0.085-0.015-0.169-0.029-0.254-0.045l-31.397,4.553C38.7,45.73,40.66,46.807,41.609,48.566z"/>
<path fill="#5A7FC0" d="M36.607,46.033L36.607,46.033L36.607,46.033c-0.737,0.107-1.401,0.383-1.984,0.768
	c0.731,0.299,1.471,0.574,2.213,0.816L36.607,46.033z"/>
<path fill="#5A7FC0" d="M36.836,47.617c1.319,0.428,2.64,0.753,3.903,0.895c0.264,0.029,0.559,0.046,0.87,0.055
	c-0.949-1.76-2.909-2.836-5.002-2.533l0,0L36.836,47.617z"/>
<path fill="#5A7FC0" d="M69.593,43.248c2.242-0.588,3.679-0.988,3.778-1.016c-0.003-0.002-0.006-0.006-0.009-0.008
	c-0.2-0.018-1.777-0.162-3.993-0.514L69.593,43.248z"/>
<path fill="#5A7FC0" d="M69.369,41.711c-0.354-0.057-0.727-0.118-1.111-0.186c-1.201,0.535-2.116,1.521-2.574,2.727
	c1.46-0.367,2.784-0.708,3.909-1.004L69.369,41.711z"/>
</svg>
