<?xml version="1.0" encoding="utf-8"?>
<!-- Generator: Adobe Illustrator 16.0.0, SVG Export Plug-In . SVG Version: 6.00 Build 0)  -->
<!DOCTYPE svg PUBLIC "-//W3C//DTD SVG 1.1//EN" "http://www.w3.org/Graphics/SVG/1.1/DTD/svg11.dtd">
<svg version="1.1" id="Layer_1" xmlns="http://www.w3.org/2000/svg" xmlns:xlink="http://www.w3.org/1999/xlink" x="0px" y="0px"
	 width="31px" height="31px" viewBox="0 0 31 31" enable-background="new 0 0 31 31" xml:space="preserve">
<g>
	<path fill="#EE2534" d="M20.7,18.7c0.2,0.2,0.2,0.4,0,0.5c-0.1,0.1-0.4,0.1-0.5,0l-9.4-9.4c-0.2-0.2-0.2-0.4,0-0.5
		c0.1-0.1,0.4-0.1,0.5,0L20.7,18.7z"/>
</g>
<g>
	<path fill="#EE2534" d="M20.2,9.3c0.2-0.2,0.4-0.2,0.5,0s0.1,0.4,0,0.5l-9.4,9.4c-0.2,0.2-0.4,0.2-0.5,0c-0.1-0.1-0.1-0.4,0-0.5
		L20.2,9.3z"/>
</g>
</svg>
