<?xml version="1.0" encoding="utf-8"?>
<!-- Generator: Adobe Illustrator 16.0.0, SVG Export Plug-In . SVG Version: 6.00 Build 0)  -->
<!DOCTYPE svg PUBLIC "-//W3C//DTD SVG 1.1//EN" "http://www.w3.org/Graphics/SVG/1.1/DTD/svg11.dtd">
<svg version="1.1" id="Layer_1" xmlns="http://www.w3.org/2000/svg" xmlns:xlink="http://www.w3.org/1999/xlink" x="0px" y="0px"
	 width="100px" height="100px" viewBox="0 0 100 100" enable-background="new 0 0 100 100" xml:space="preserve">
<g>
	<g>
		<path fill="none" stroke="#B9BCC5" stroke-width="3" stroke-miterlimit="10" d="M68.4,50c1.6,0.3,2.9-1.1,2.9-3.2
			c0-2.1-1.2-3.7-2.7-3.5c-1.5,0.2-2.9-0.3-3.2-1.1c-0.2-0.8-0.1-3.5,1.1-4.4s1-2.8-0.5-4.2c-1.5-1.4-3.4-1.7-4.3-0.6
			s-2.1,1.7-2.9,1.2s-2.9-2.3-2.6-3.7c0.3-1.4-1.2-2.5-3.3-2.5s-3.7,1.1-3.5,2.5s-0.3,2.8-1.1,3c-0.8,0.3-3.4,0.4-4.2-0.7
			c-0.8-1.1-2.7-0.8-4.2,0.6c-1.5,1.4-1.8,3.3-0.6,4.2c1.2,0.8,1.9,2.2,1.5,2.9c-0.4,0.8-2.1,2.8-3.6,2.6c-1.5-0.2-2.6,1.4-2.6,3.5
			c0,2.1,1.3,3.6,2.8,3.3c1.5-0.3,2.9,0,3.2,0.8s0.3,3.3-0.9,4.3c-1.2,1-0.9,3,0.6,4.4c1.5,1.4,3.5,1.5,4.3,0.2
			c0.8-1.3,2.1-2.1,2.9-1.7c0.8,0.4,2.7,2.4,2.3,4c-0.4,1.7,1,3.1,3.1,3.1c2.1,0.1,3.7-1.4,3.5-3.1c-0.2-1.8,0.3-3.4,1-3.7
			c0.7-0.2,3.2-0.1,4.1,1.3c0.8,1.4,2.8,1.3,4.3-0.2c1.5-1.4,1.8-3.5,0.5-4.5c-1.3-1-2-2.4-1.6-3.1C64.9,51.3,66.8,49.7,68.4,50z"/>
	</g>
	<circle fill="none" stroke="#B9BCC5" stroke-width="3" stroke-miterlimit="10" cx="53" cy="46.8" r="5.1"/>
</g>
</svg>
