<?xml version="1.0" encoding="utf-8"?>
<!-- Generator: Adobe Illustrator 16.0.0, SVG Export Plug-In . SVG Version: 6.00 Build 0)  -->
<!DOCTYPE svg PUBLIC "-//W3C//DTD SVG 1.1//EN" "http://www.w3.org/Graphics/SVG/1.1/DTD/svg11.dtd">
<svg version="1.1" id="Layer_1" xmlns="http://www.w3.org/2000/svg" xmlns:xlink="http://www.w3.org/1999/xlink" x="0px" y="0px"
	 width="31px" height="31px" viewBox="0 0 31 31" enable-background="new 0 0 31 31" xml:space="preserve">
<path fill="none" stroke="#ADB1B6" stroke-width="0.5" stroke-miterlimit="10" d="M10.7,20.4V7.2l1.1,1.2L13,7.2l1,1.3l1.1-1.3
	l1.2,1.3l1.3-1.3l0.9,1.3L20,7.2v11.9l1.7,0c0,2.2-0.8,1.9-0.8,1.9l-8.7,0C10.8,21.1,10.7,20.4,10.7,20.4z"/>
<path fill="none" stroke="#ADB1B6" stroke-width="0.5" stroke-miterlimit="10" d="M20,19.1h-6.4c0,1.3-0.9,2-0.9,2"/>
<g>
	<g>
		<path fill="#ADB1B6" d="M14.3,13.8c0.2,0.2,0.6,0.3,1,0.3c0.6,0,0.9-0.3,0.9-0.7c0-0.4-0.2-0.6-0.8-0.9c-0.7-0.2-1.1-0.6-1.1-1.2
			c0-0.7,0.6-1.2,1.4-1.2c0.4,0,0.8,0.1,1,0.2l-0.2,0.5c-0.1-0.1-0.4-0.2-0.8-0.2c-0.6,0-0.8,0.4-0.8,0.6c0,0.4,0.3,0.6,0.9,0.8
			c0.7,0.3,1.1,0.6,1.1,1.3c0,0.7-0.5,1.2-1.5,1.2c-0.4,0-0.9-0.1-1.1-0.3L14.3,13.8z"/>
	</g>
</g>
<rect x="14.9" y="14.5" fill="#ADB1B6" width="0.6" height="0.6"/>
<rect x="14.9" y="9.8" fill="#ADB1B6" width="0.6" height="0.5"/>
<g>
	<path fill="#ADB1B6" d="M18.2,16.1c0,0.2-0.2,0.3-0.4,0.3h-4.6c-0.2,0-0.4-0.1-0.4-0.3c0-0.2,0.2-0.3,0.4-0.3h4.6
		C18,15.8,18.2,16,18.2,16.1z"/>
</g>
<g>
	<path fill="#ADB1B6" d="M17.1,17.4c0,0.2-0.2,0.3-0.4,0.3h-2.4c-0.2,0-0.4-0.1-0.4-0.3s0.2-0.3,0.4-0.3h2.4
		C16.9,17.1,17.1,17.3,17.1,17.4z"/>
</g>
</svg>
