<?xml version="1.0" encoding="utf-8"?>
<!-- Generator: Adobe Illustrator 16.0.0, SVG Export Plug-In . SVG Version: 6.00 Build 0)  -->
<!DOCTYPE svg PUBLIC "-//W3C//DTD SVG 1.1//EN" "http://www.w3.org/Graphics/SVG/1.1/DTD/svg11.dtd">
<svg version="1.1" id="Layer_1" xmlns="http://www.w3.org/2000/svg" xmlns:xlink="http://www.w3.org/1999/xlink" x="0px" y="0px"
	 width="31px" height="31px" viewBox="0 0 31 31" enable-background="new 0 0 31 31" xml:space="preserve">
<polygon fill="#6CAEDF" points="15.3,21.7 15.3,22 9,22 9,18 12.9,18 13.5,17.3 13.5,17.2 9,17.2 9,9.2 15.3,9.2 15.3,10.1 
	16.2,10.2 16.2,8.4 8.2,8.5 8.2,23 16.2,22.9 16.2,22 16,22.3 "/>
<polygon fill="#6CAEDF" points="20.5,14.8 18.6,17.4 18.4,19.1 21.7,14.7 19,12.7 18.9,13.6 "/>
<polygon fill="#6CAEDF" points="16.8,19.8 16.2,20.5 16.2,22 17.9,19.9 "/>
<polygon fill="#6CAEDF" points="16,20.8 15.3,20.2 15.3,21.7 16,22.3 16.2,22 16.2,20.5 "/>
<polygon fill="#6CAEDF" points="13.5,17.3 12.9,18 13.4,18 "/>
<polygon fill="#6CAEDF" points="15.3,19.6 15.3,20.2 16,20.8 16.2,20.5 16.2,19.7 "/>
<polygon fill="#6CAEDF" points="18.2,11.2 18.1,12 19,12.7 19.2,10.5 16.2,10.2 16.2,11 "/>
<polygon fill="#6CAEDF" points="15.3,10.9 16.2,11 16.2,10.2 15.3,10.1 "/>
<polygon fill="#6CAEDF" points="13.5,17.2 13.5,17.3 13.5,17.2 "/>
<polygon fill="#6CAEDF" points="18,13 18.9,13.6 19,12.7 18.1,12 "/>
<polygon fill="#6CAEDF" points="16.8,19.8 17.9,19.9 18.4,19.1 18.6,17.4 "/>
<polygon fill="#6CAEDF" points="14.1,18 14.3,17.6 14.4,17.2 13.5,17.2 13.5,17.3 13.4,18 "/>
<polygon fill="#6CAEDF" points="14.3,17.6 14.1,18 14.3,18 "/>
<polygon fill="#6CAEDF" points="15.3,19.6 16.2,19.7 16.2,18.5 15.3,18.4 "/>
<polygon fill="#6CAEDF" points="16.2,13.6 16.2,11 15.3,10.9 15.3,14.9 "/>
<polygon fill="#6CAEDF" points="16.2,15.1 16.2,13.6 15.3,14.9 15.3,16.4 "/>
<polygon fill="#6CAEDF" points="14.4,17.2 14.3,17.6 14.7,17.2 "/>
<polygon fill="#6CAEDF" points="15.3,16.4 15.3,17.2 14.7,17.2 14.3,17.6 14.3,18 15.3,18 15.3,18.4 16.2,18.5 16.2,15.1 "/>
<polygon fill="#6CAEDF" points="18,13 16.2,19.6 15.6,20.9 15.7,21.5 16.8,20 18.7,13.6 19,13.3 "/>
<circle fill="#6CAEDF" cx="12.2" cy="20.2" r="1.1"/>
</svg>
