<?xml version="1.0" encoding="utf-8"?>
<!-- Generator: Adobe Illustrator 16.0.0, SVG Export Plug-In . SVG Version: 6.00 Build 0)  -->
<!DOCTYPE svg PUBLIC "-//W3C//DTD SVG 1.1//EN" "http://www.w3.org/Graphics/SVG/1.1/DTD/svg11.dtd">
<svg version="1.1" id="Layer_1" xmlns="http://www.w3.org/2000/svg" xmlns:xlink="http://www.w3.org/1999/xlink" x="0px" y="0px"
	 width="100px" height="100px" viewBox="0 0 100 100" enable-background="new 0 0 100 100" xml:space="preserve">
<path fill="none" stroke="#ADB1B6" stroke-width="1.5" stroke-miterlimit="10" d="M32.2,64.5v-38l3.1,3.5l3.8-3.5l3,3.9l3.3-3.9
	l3.5,3.6l3.9-3.6l2.5,3.9l4-3.9v34.3L64,61c0.1,6.4-2.4,5.5-2.4,5.5l-25.1,0C32.5,66.6,32.2,64.5,32.2,64.5z"/>
<path fill="none" stroke="#ADB1B6" stroke-width="1.5" stroke-miterlimit="10" d="M59.2,60.9H40.8c0,3.8-2.6,5.6-2.6,5.6"/>
<g>
	<g>
		<path fill="#ADB1B6" d="M42.6,45.6c0.7,0.4,1.8,0.8,2.9,0.8c1.6,0,2.6-0.9,2.6-2.1c0-1.2-0.7-1.8-2.3-2.5c-2-0.7-3.3-1.8-3.3-3.5
			c0-1.9,1.6-3.4,4-3.4c1.3,0,2.2,0.3,2.8,0.6l-0.4,1.3c-0.4-0.2-1.2-0.6-2.4-0.6c-1.7,0-2.3,1-2.3,1.9c0,1.2,0.8,1.7,2.5,2.4
			c2.1,0.8,3.2,1.8,3.2,3.7c0,1.9-1.4,3.6-4.4,3.6c-1.2,0-2.5-0.4-3.2-0.8L42.6,45.6z"/>
	</g>
</g>
<rect x="44.5" y="47.4" fill="#ADB1B6" width="1.7" height="1.7"/>
<rect x="44.5" y="34" fill="#ADB1B6" width="1.7" height="1.4"/>
<g>
	<path fill="#ADB1B6" d="M52.8,53.1c0,0.5-0.5,0.9-1,0.9H39.5c-0.5,0-1-0.4-1-0.9c0-0.5,0.5-0.9,1-0.9h12.3
		C52.4,52.2,52.8,52.6,52.8,53.1z"/>
</g>
<g>
	<path fill="#ADB1B6" d="M49.7,56.5c0,0.5-0.5,0.9-1,0.9h-6.5c-0.5,0-1-0.4-1-0.9s0.5-0.9,1-0.9h6.5C49.3,55.6,49.7,56,49.7,56.5z"
		/>
</g>
</svg>
