<?xml version="1.0" encoding="utf-8"?>
<!-- Generator: Adobe Illustrator 16.0.0, SVG Export Plug-In . SVG Version: 6.00 Build 0)  -->
<!DOCTYPE svg PUBLIC "-//W3C//DTD SVG 1.1//EN" "http://www.w3.org/Graphics/SVG/1.1/DTD/svg11.dtd">
<svg version="1.1" id="Layer_1" xmlns="http://www.w3.org/2000/svg" xmlns:xlink="http://www.w3.org/1999/xlink" x="0px" y="0px"
	 width="1068px" height="1286px" viewBox="0 0 1068 1286" enable-background="new 0 0 1068 1286" xml:space="preserve">
<path fill="#5677BA" d="M0,74.2c48.4-64.7,136.6-33.8,155.8,0C194,115.4,0,450.6,0,450.6V74.2z"/>
<polygon fill="#587ABC" points="501.4,0 467.5,74.2 677.8,74.2 726.4,0 "/>
<path fill="#6D93CC" d="M289.6,625.6h157.4C395.5,709.5,298.4,666.8,289.6,625.6z"/>
<path fill="#D7D8DE" d="M770.5,600.6c4.4,76.5,122.1,176.5,204.4,25c82.4-151.5-57.4-44.1-57.4-44.1L770.5,600.6z"/>
<polygon fill="#D7D8DE" points="1017.5,544.6 1069.9,459.5 1068,137.4 1017.5,222.7 "/>
</svg>
