<?xml version="1.0" encoding="utf-8"?>
<!-- Generator: Adobe Illustrator 16.0.0, SVG Export Plug-In . SVG Version: 6.00 Build 0)  -->
<!DOCTYPE svg PUBLIC "-//W3C//DTD SVG 1.1//EN" "http://www.w3.org/Graphics/SVG/1.1/DTD/svg11.dtd">
<svg version="1.1" id="Layer_1" xmlns="http://www.w3.org/2000/svg" xmlns:xlink="http://www.w3.org/1999/xlink" x="0px" y="0px"
	 width="100px" height="100px" viewBox="0 0 100 100" enable-background="new 0 0 100 100" xml:space="preserve">
<polygon fill="#FFFFFF" points="74.277,40.11 74.274,40.109 74.275,40.11 "/>
<g>
	<path fill="#FFFFFF" d="M63.987,55.086c0.276,0.078,0.556,0.156,0.848,0.235C64.556,55.215,64.271,55.136,63.987,55.086z"/>
	<path fill="#3657A7" d="M26.386,40.11c4.213,3.647,9.219,4.551,13.421,4.803c13.764-1.025,25.531-4.367,30.76-5.428
		c-2.902-0.617-4.823-1.394-6.067-2.214C55.397,39.738,43.082,41.048,26.386,40.11z"/>
	<g>
		<g>
			<path fill="#5A7FC0" d="M63.102,32.242c-0.654,0.8-1.623,3.04,1.397,5.029c6.376-1.728,11.177-4.022,14.794-6.512
				c4.447-7.297-2.167-9.578-6.271-8.096c-2.166,1.368-17.788,8.78-45.269,9.008c-1.717,0.024-5.473,4.561-1.367,8.438
				C26.386,40.11,64.127,30.988,63.102,32.242z"/>
			<path fill="#5A7FC0" d="M64.499,37.271c-3.021-1.99-2.052-4.229-1.397-5.029c1.025-1.254-36.716,7.868-36.716,7.868
				C43.082,41.048,55.397,39.738,64.499,37.271z"/>
		</g>
	</g>
	<polygon fill="#FFFFFF" points="64.837,55.322 64.835,55.321 64.837,55.322 	"/>
	<path fill="#3657A7" d="M36.718,53.764c0.092,0.064,4.587,3.202,9.377,5.012c0.259-0.174,0.531-0.292,0.814-0.308
		c6.148-0.348,13.086-2.021,15.964-3.421c0.366-0.046,0.74-0.026,1.114,0.039c-3.381-0.956-5.646-1.85-7.164-2.654
		c-7.449,1.218-15.155,2.045-18.352,2.045C37.781,54.292,37.203,54.049,36.718,53.764z"/>
	<g>
		<path fill="#5A7FC0" d="M70.854,39.426c-0.088,0.017-0.195,0.041-0.288,0.06c1.094,0.233,2.32,0.443,3.708,0.624
			C73.371,39.468,72.191,39.164,70.854,39.426z"/>
		<path fill="#5A7FC0" d="M47.594,45.355c3.304,1.026,26.647-5.235,26.682-5.245c0,0,0,0-0.001-0.001
			c-1.388-0.181-2.614-0.391-3.708-0.624c-5.229,1.061-16.996,4.402-30.76,5.428C43.224,45.119,46.11,44.895,47.594,45.355z"/>
		<g>
			<g>
				<path fill="#5A7FC0" d="M47.594,45.355c-1.483-0.46-4.37-0.236-7.787-0.442c-0.445,0.033-0.886,0.071-1.335,0.1
					c-2.762,0.173-6.083,6.208-1.754,8.751c-0.001-0.001-0.007-0.005-0.007-0.005s17.04-5.896,17.04-4.983
					c0,0.607-0.197,1.922,3.072,3.656c6.105-0.998,12.039-2.258,15.172-3.542c5.182-2.124,4.919-6.903,2.28-8.779
					C74.241,40.12,50.897,46.381,47.594,45.355z"/>
				<path fill="#5A7FC0" d="M53.751,48.776c0-0.913-17.04,4.983-17.04,4.983s0.006,0.004,0.007,0.005
					c0.485,0.285,1.063,0.528,1.754,0.713c3.196,0,10.902-0.827,18.352-2.045C53.554,50.698,53.751,49.383,53.751,48.776z"/>
			</g>
		</g>
	</g>
	<g>
		<g>
			<path fill="#5A7FC0" d="M46.095,58.775c-2.127,1.432-3.152,7.595,1.727,8.814c6.956-0.342,6.956-0.342,13.684-1.597
				c10.18-2.447,7.25-9.175,3.332-10.671c-0.003,0.002-5.271,3.031-11.314,4.514C51.404,60.355,48.706,59.763,46.095,58.775z"/>
			<path fill="#5A7FC0" d="M62.873,55.047c-2.878,1.4-9.815,3.073-15.964,3.421c-0.283,0.016-0.556,0.134-0.814,0.308
				c2.611,0.987,5.31,1.58,7.428,1.061c6.043-1.482,11.312-4.512,11.314-4.514c-0.001,0-0.002,0-0.002-0.001
				c-0.292-0.079-0.571-0.157-0.848-0.235C63.613,55.021,63.239,55.001,62.873,55.047z"/>
		</g>
	</g>
</g>
</svg>
