<?xml version="1.0" encoding="utf-8"?>
<!-- Generator: Adobe Illustrator 16.0.0, SVG Export Plug-In . SVG Version: 6.00 Build 0)  -->
<!DOCTYPE svg PUBLIC "-//W3C//DTD SVG 1.1//EN" "http://www.w3.org/Graphics/SVG/1.1/DTD/svg11.dtd">
<svg version="1.1" id="Layer_1" xmlns="http://www.w3.org/2000/svg" xmlns:xlink="http://www.w3.org/1999/xlink" x="0px" y="0px"
	 width="31px" height="31px" viewBox="0 0 31 31" enable-background="new 0 0 31 31" xml:space="preserve">
<g>
	<path fill="#5793FF" d="M9.1,8.2c-0.3,0-0.5,0.2-0.5,0.5v13.1c0,0.3,0.2,0.5,0.5,0.5h13c0.3,0,0.5-0.2,0.5-0.5V8.7
		c0-0.3-0.2-0.5-0.5-0.5H9.1z M21,20.2c0,0.3-0.2,0.5-0.5,0.5h-9.9c-0.3,0-0.5-0.2-0.5-0.5v-10c0-0.3,0.2-0.5,0.5-0.5h9.9
		c0.3,0,0.5,0.2,0.5,0.5V20.2z"/>
</g>
<g>
	<path fill="#5793FF" d="M19.5,12.2c0-0.2-0.2-0.4-0.5-0.4h-6.7c-0.3,0-0.5,0.2-0.5,0.4c0,0.2,0.2,0.4,0.5,0.4H19
		C19.3,12.6,19.5,12.4,19.5,12.2z"/>
</g>
<g>
	<path fill="#5793FF" d="M19.5,15.2c0-0.3-0.2-0.5-0.5-0.5h-6.7c-0.3,0-0.5,0.2-0.5,0.5c0,0.3,0.2,0.5,0.5,0.5H19
		C19.3,15.7,19.5,15.5,19.5,15.2z"/>
</g>
<g>
	<path fill="#5793FF" d="M19.5,18.2c0-0.2-0.2-0.4-0.5-0.4h-6.7c-0.3,0-0.5,0.2-0.5,0.4s0.2,0.4,0.5,0.4H19
		C19.3,18.6,19.5,18.4,19.5,18.2z"/>
</g>
</svg>
